<svg width="288" height="288" viewBox="0 0 288 288" fill="none" xmlns="http://www.w3.org/2000/svg">
<g clip-path="url(#clip0_20_2)">
<path d="M84.361 1.00802C69.0394 1.7309 58.5763 4.17602 49.4294 7.77026C39.9629 11.4595 31.9392 16.4103 23.9558 24.4224C15.9725 32.4346 11.0563 40.464 7.39295 49.945C3.84767 59.112 1.44575 69.5837 0.768949 84.9139C0.0921494 100.244 -0.0576106 105.172 0.0172694 144.276C0.0921493 183.381 0.264949 188.283 1.00799 203.645C1.73951 218.964 4.17599 229.424 7.77023 238.573C11.4653 248.04 16.4102 256.061 24.4253 264.047C32.4403 272.033 40.464 276.938 49.968 280.607C59.1264 284.147 69.601 286.56 84.9283 287.231C100.256 287.902 105.189 288.058 144.282 287.983C183.375 287.908 188.297 287.735 203.656 287.006C219.015 286.278 229.421 283.824 238.573 280.247C248.04 276.543 256.067 271.607 264.047 263.589C272.027 255.571 276.941 247.536 280.601 238.049C284.149 228.891 286.56 218.416 287.225 203.1C287.896 187.73 288.055 182.822 287.98 143.724C287.905 104.625 287.729 99.7229 287.001 84.3667C286.272 69.0106 283.833 58.5821 280.241 49.4266C276.54 39.96 271.601 31.945 263.589 23.953C255.577 15.961 247.536 11.0506 238.052 7.39874C228.888 3.85346 218.419 1.43714 203.092 0.774737C187.764 0.112337 182.831 -0.0575829 143.724 0.0172971C104.616 0.0921771 99.72 0.259217 84.361 1.00802ZM86.0429 261.325C72.0029 260.715 64.3795 258.382 59.2992 256.429C52.5715 253.837 47.7792 250.704 42.7161 245.69C37.6531 240.676 34.5427 235.866 31.9161 229.153C29.9433 224.073 27.5673 216.458 26.9107 202.418C26.1965 187.243 26.0467 182.687 25.9632 144.242C25.8797 105.797 26.0265 101.246 26.6918 86.0659C27.2909 72.0375 29.6381 64.4055 31.5878 59.328C34.1798 52.5917 37.3017 47.808 42.3273 42.7479C47.3529 37.6877 52.1481 34.5715 58.8672 31.945C63.9417 29.9635 71.5565 27.6077 85.5907 26.9395C100.777 26.2195 105.327 26.0755 143.767 25.992C182.206 25.9085 186.768 26.0525 201.96 26.7207C215.988 27.3312 223.623 29.6554 228.695 31.6167C235.426 34.2087 240.215 37.3219 245.275 42.3562C250.335 47.3904 253.454 52.1683 256.081 58.9018C258.065 63.9619 260.421 71.5738 261.083 85.6167C261.806 100.803 261.971 105.356 262.04 143.793C262.109 182.229 261.973 186.794 261.308 201.969C260.695 216.009 258.368 223.635 256.412 228.721C253.82 235.446 250.695 240.241 245.667 245.298C240.638 250.356 235.849 253.472 229.127 256.098C224.058 258.077 216.435 260.438 202.412 261.107C187.226 261.821 182.676 261.971 144.222 262.054C105.768 262.138 101.232 261.982 86.0457 261.325M203.435 67.0378C203.44 70.4557 204.459 73.7951 206.363 76.6338C208.267 79.4724 210.97 81.6827 214.13 82.9851C217.29 84.2876 220.765 84.6236 224.116 83.9508C227.467 83.278 230.543 81.6266 232.956 79.2053C235.368 76.7841 237.008 73.7018 237.669 70.3483C238.329 66.9948 237.98 63.5208 236.666 60.3656C235.352 57.2104 233.132 54.5157 230.287 52.6224C227.441 50.7291 224.098 49.7221 220.68 49.729C216.098 49.7381 211.707 51.5667 208.473 54.8126C205.239 58.0584 203.427 62.4558 203.435 67.0378ZM70.0617 144.144C70.1424 184.982 103.308 218.013 144.138 217.935C184.968 217.858 218.022 184.694 217.944 143.856C217.866 103.018 184.691 69.9782 143.856 70.0589C103.02 70.1395 69.984 103.311 70.0617 144.144ZM95.999 144.092C95.9802 134.599 98.7771 125.312 104.036 117.408C109.295 109.504 116.779 103.337 125.543 99.6866C134.307 96.0361 143.956 95.0665 153.271 96.9001C162.586 98.7338 171.148 103.289 177.874 109.988C184.601 116.688 189.189 125.232 191.06 134.539C192.93 143.847 191.999 153.5 188.383 162.279C184.768 171.057 178.63 178.566 170.747 183.856C162.864 189.146 153.589 191.979 144.095 191.998C137.791 192.011 131.547 190.783 125.718 188.382C119.889 185.982 114.59 182.456 110.124 178.008C105.657 173.559 102.111 168.274 99.6877 162.455C97.2642 156.636 96.0107 150.396 95.999 144.092Z" fill="white"/>
</g>
<defs>
<clipPath id="clip0_20_2">
<rect width="288" height="288" fill="white"/>
</clipPath>
</defs>
</svg>
